<svg xmlns="http://www.w3.org/2000/svg" width="642.945" height="98.376" viewBox="0 0 170.113 26.029"><path d="M31.722 17.895h-2.44V3.254A3.263 3.263 0 0026.03 0H6.507a3.263 3.263 0 00-3.253 3.254v14.64H.814a.816.816 0 00-.814.814v2.44a4.895 4.895 0 004.88 4.88h22.775a4.895 4.895 0 004.88-4.88v-2.44a.816.816 0 00-.813-.813zM5.694 3.254c0-.441.372-.814.813-.814H26.03c.44 0 .813.373.813.814v14.64H5.694zm24.401 17.894a2.443 2.443 0 01-2.44 2.44H4.88a2.443 2.443 0 01-2.44-2.44v-.813h9.197c.283.477.781.813 1.377.813h6.507c.596 0 1.094-.336 1.378-.813h9.196zM109.614 4.677a5.09 5.09 0 00-5.083 5.084 3.46 3.46 0 003.456 3.457c.785 0 1.424.638 1.424 1.423s-.639 1.423-1.424 1.423h-1.016a.61.61 0 00-.61.61v.814c0 .336.273.61.61.61h1.016a3.46 3.46 0 003.457-3.457 3.46 3.46 0 00-3.457-3.457 1.425 1.425 0 01-1.423-1.423 3.054 3.054 0 013.05-3.05 3.054 3.054 0 013.05 3.05v1.016c0 .336.274.61.61.61h.814a.61.61 0 00.61-.61V9.761a5.09 5.09 0 00-5.084-5.084zm0-4.677c-5.39 0-9.76 4.37-9.76 9.76v8.948a7.32 7.32 0 1014.64 0v-.503c2.915-1.689 4.88-4.834 4.88-8.444 0-5.391-4.369-9.761-9.76-9.761zm3.657 16.093l-1.217.706v1.91c0 2.69-2.189 4.88-4.88 4.88a4.886 4.886 0 01-4.88-4.88V9.76c0-4.037 3.284-7.32 7.32-7.32 4.037 0 7.32 3.283 7.32 7.32a7.347 7.347 0 01-3.663 6.332zM168.486 11.601c.096-.381.147-.773.147-1.17a4.88 4.88 0 00-2.221-4.097c-.02-2.018-1.495-3.7-3.432-4.056A4.177 4.177 0 00159.254 0c-1.16 0-2.207.468-2.964 1.225A4.185 4.185 0 00153.326 0c-1.596 0-3.03.905-3.726 2.283-1.937.355-3.411 2.038-3.432 4.056a4.868 4.868 0 00-2.074 5.267 4.86 4.86 0 00.59 7.717c.025 2.415 1.957 4.382 4.362 4.489a4.544 4.544 0 003.904 2.217c1.322 0 2.501-.57 3.335-1.465a4.544 4.544 0 003.335 1.465c1.621 0 3.096-.86 3.904-2.217 2.41-.102 4.342-2.074 4.367-4.489a4.887 4.887 0 002.222-4.097 4.857 4.857 0 00-1.627-3.625zm-13.421 9.893c0 1.159-.946 2.094-2.11 2.094-1.672 0-2.008-1.5-2.318-2.42l-1.032.173c-1.22.204-2.466-.777-2.466-2.059 0-.142.24-1.392.24-1.392l-.926-.382c-1.876-.772-2.1-3.36-.28-4.402l.992-.57-.504-1.021c-.894-1.82.58-3.076 1.276-3.36l.961-.392c-.254-1.114-.28-1.16-.28-1.383 0-.956.778-1.728 1.622-1.733l1.165.06.244-.96a1.732 1.732 0 013.411.427zm11.067-3.99l-.93.38s.234 1.251.234 1.393c0 1.281-1.246 2.258-2.466 2.06l-1.032-.174c-.31.926-.646 2.42-2.318 2.42-1.164 0-2.11-.94-2.11-2.094V4.169c0-.956.778-1.729 1.739-1.729.788 0 1.479.534 1.672 1.302l.244.96 1.164-.06c.84.005 1.622.782 1.622 1.733 0 .224-.02.27-.28 1.383l.961.391c.697.285 2.171 1.535 1.276 3.35l-.503 1.022.991.57a2.448 2.448 0 01-.264 4.412zM62.941 8.947a2.44 2.44 0 10-2.44-2.44 2.44 2.44 0 002.44 2.44zm0 13.015a5.694 5.694 0 10-5.694-5.694 5.694 5.694 0 005.694 5.694zm0-8.948a3.254 3.254 0 11-3.254 3.254 3.254 3.254 0 013.254-3.254zM70.261 0h-14.64a2.44 2.44 0 00-2.44 2.44v21.148a2.44 2.44 0 002.44 2.44h14.64a2.44 2.44 0 002.44-2.44V2.44A2.44 2.44 0 0070.262 0zm0 23.588h-14.64V2.44h14.64z"/><g stroke="red" stroke-width="11.719"><path d="M34.21 13.007s1.347-3.885 2.694-3.885 2.694 3.885 2.694 3.885 1.081 3.9 2.695 3.9c1.613 0 2.694-3.893 2.694-3.893" fill="none" stroke-width="1.32600485"/></g><g stroke="#006dff" stroke-width="11.719"><path d="M80.883 13.007s1.347-3.885 2.694-3.885 2.694 3.885 2.694 3.885 1.082 3.9 2.695 3.9c1.613 0 2.694-3.893 2.694-3.893" fill="none" stroke-width="1.32600485"/></g><g stroke="#ff8100" stroke-width="11.719"><path d="M127.556 13.007s1.347-3.885 2.694-3.885 2.695 3.885 2.695 3.885 1.08 3.9 2.694 3.9c1.613 0 2.694-3.893 2.694-3.893" fill="none" stroke-width="1.32600485"/></g></svg>