<?xml version="1.0" encoding="windows-1252"?>
<!-- Generator: Adobe Illustrator 11.0, SVG Export Plug-In  -->
<!DOCTYPE svg PUBLIC "-//W3C//DTD SVG 1.0//EN" "http://www.w3.org/TR/2001/REC-SVG-20010904/DTD/svg10.dtd">
<svg xmlns="http://www.w3.org/2000/svg" xmlns:xlink="http://www.w3.org/1999/xlink" xmlns:a="http://ns.adobe.com/AdobeSVGViewerExtensions/3.0/" width="2103" height="527" viewBox="-0.7304688 -0.4624023 2103 527" xml:space="preserve" data-ember-extension="1">
	<defs>
	</defs>
	<g>
		<polyline fill="#FFFFFF" stroke="#000000" stroke-width="4" stroke-miterlimit="1" points="701.3896484,463.871582 2,463.871582     2,2 701.3896484,2 "/>
		
			<line fill="#FFFFFF" stroke="#000000" stroke-width="4" stroke-miterlimit="1" x1="701.3896484" y1="2" x2="701.3896484" y2="463.871582"/>
		
			<line fill="#FFFFFF" stroke="#000000" stroke-width="4" stroke-miterlimit="1" x1="601.5078125" y1="2" x2="601.5078125" y2="463.871582"/>
		
			<line fill="#FFFFFF" stroke="#000000" stroke-width="4" stroke-miterlimit="1" x1="501.6308594" y1="2" x2="501.6308594" y2="463.871582"/>
		
			<line fill="#FFFFFF" stroke="#000000" stroke-width="4" stroke-miterlimit="1" x1="401.5273438" y1="2" x2="401.5273438" y2="463.871582"/>
		
			<line fill="#FFFFFF" stroke="#000000" stroke-width="4" stroke-miterlimit="1" x1="301.6445313" y1="2" x2="301.6445313" y2="463.871582"/>
		
			<line fill="#FFFFFF" stroke="#000000" stroke-width="4" stroke-miterlimit="1" x1="201.7651367" y1="2" x2="201.7651367" y2="463.871582"/>
		
			<line fill="#FFFFFF" stroke="#000000" stroke-width="4" stroke-miterlimit="1" x1="101.8823242" y1="2" x2="101.8823242" y2="463.871582"/>
		<rect x="72.7202148" y="2" stroke="#000000" stroke-miterlimit="1" width="62.0385742" height="281.9633789"/> 
		<rect x="171.2246094" y="2" stroke="#000000" stroke-miterlimit="1" width="62.0385742" height="281.9633789"/> 
		<rect x="370.5078125" y="2" stroke="#000000" stroke-miterlimit="1" width="62.0385742" height="281.9633789"/> 
		<rect x="470.6118164" y="2" stroke="#000000" stroke-miterlimit="1" width="62.0385742" height="281.9633789"/> 
		<rect x="570.4882813" y="2" stroke="#000000" stroke-miterlimit="1" width="62.0380859" height="281.9633789"/> 
		<polyline fill="#FFFFFF" stroke="#000000" stroke-width="4" stroke-miterlimit="1" points="1400.7753906,463.871582     701.3896484,463.871582 701.3896484,2 1400.7753906,2 "/>
		
			<line fill="#FFFFFF" stroke="#000000" stroke-width="4" stroke-miterlimit="1" x1="1400.7753906" y1="2" x2="1400.7753906" y2="463.871582"/>
		
			<line fill="#FFFFFF" stroke="#000000" stroke-width="4" stroke-miterlimit="1" x1="1300.8925781" y1="2" x2="1300.8925781" y2="463.871582"/>
		
			<line fill="#FFFFFF" stroke="#000000" stroke-width="4" stroke-miterlimit="1" x1="1201.015625" y1="2" x2="1201.015625" y2="463.871582"/>
		
			<line fill="#FFFFFF" stroke="#000000" stroke-width="4" stroke-miterlimit="1" x1="1100.9121094" y1="2" x2="1100.9121094" y2="463.871582"/>
		
			<line fill="#FFFFFF" stroke="#000000" stroke-width="4" stroke-miterlimit="1" x1="1001.0292969" y1="2" x2="1001.0292969" y2="463.871582"/>
		
			<line fill="#FFFFFF" stroke="#000000" stroke-width="4" stroke-miterlimit="1" x1="901.1503906" y1="2" x2="901.1503906" y2="463.871582"/>
		
			<line fill="#FFFFFF" stroke="#000000" stroke-width="4" stroke-miterlimit="1" x1="801.2675781" y1="2" x2="801.2675781" y2="463.871582"/>
		<rect x="772.0351563" y="2" stroke="#000000" stroke-miterlimit="1" width="62.0341797" height="281.9633789"/> 
		<rect x="870.5351563" y="2" stroke="#000000" stroke-miterlimit="1" width="62.0380859" height="281.9633789"/> 
		<rect x="1069.8183594" y="2" stroke="#000000" stroke-miterlimit="1" width="62.0380859" height="281.9633789"/> 
		<rect x="1169.9228516" y="2" stroke="#000000" stroke-miterlimit="1" width="62.0380859" height="281.9633789"/> 
		<rect x="1269.7988281" y="2" stroke="#000000" stroke-miterlimit="1" width="62.0380859" height="281.9633789"/> 
		<polyline fill="#FFFFFF" stroke="#000000" stroke-width="4" stroke-miterlimit="1" points="2100.1611328,463.871582     1400.7753906,463.871582 1400.7753906,2 2100.1611328,2 "/>
		
			<line fill="#FFFFFF" stroke="#000000" stroke-width="4" stroke-miterlimit="1" x1="2100.1611328" y1="2" x2="2100.1611328" y2="463.871582"/>
		
			<line fill="#FFFFFF" stroke="#000000" stroke-width="4" stroke-miterlimit="1" x1="2000.2783203" y1="2" x2="2000.2783203" y2="463.871582"/>
		
			<line fill="#FFFFFF" stroke="#000000" stroke-width="4" stroke-miterlimit="1" x1="1900.4013672" y1="2" x2="1900.4013672" y2="463.871582"/>
		
			<line fill="#FFFFFF" stroke="#000000" stroke-width="4" stroke-miterlimit="1" x1="1800.2978516" y1="2" x2="1800.2978516" y2="463.871582"/>
		
			<line fill="#FFFFFF" stroke="#000000" stroke-width="4" stroke-miterlimit="1" x1="1700.4150391" y1="2" x2="1700.4150391" y2="463.871582"/>
		
			<line fill="#FFFFFF" stroke="#000000" stroke-width="4" stroke-miterlimit="1" x1="1600.5361328" y1="2" x2="1600.5361328" y2="463.871582"/>
		
			<line fill="#FFFFFF" stroke="#000000" stroke-width="4" stroke-miterlimit="1" x1="1500.6533203" y1="2" x2="1500.6533203" y2="463.871582"/>
		<rect x="1471.4208984" y="2" stroke="#000000" stroke-miterlimit="1" width="62.0341797" height="281.9633789"/> 
		<rect x="1569.9208984" y="2" stroke="#000000" stroke-miterlimit="1" width="62.0380859" height="281.9633789"/> 
		<rect x="1769.2041016" y="2" stroke="#000000" stroke-miterlimit="1" width="62.0380859" height="281.9633789"/> 
		<rect x="1869.3085938" y="2" stroke="#000000" stroke-miterlimit="1" width="62.0380859" height="281.9633789"/> 
		<rect x="1969.1845703" y="2" stroke="#000000" stroke-miterlimit="1" width="62.0380859" height="281.9633789"/> 
		<path d="M762.2060547,510.3081055l5.75,1.4619141c-1.2109375,4.7480469-3.3876953,8.3681641-6.53125,10.8613281    c-3.1445313,2.4931641-6.9873047,3.7392578-11.5302734,3.7392578c-4.7011719,0-8.5253906-0.9580078-11.4707031-2.8759766    s-5.1875-4.6943359-6.7246094-8.3310547s-2.3056641-7.5410156-2.3056641-11.7148438    c0-4.5498047,0.8671875-8.5185547,2.6025391-11.9072266s4.2050781-5.9619141,7.4082031-7.7207031    c3.203125-1.7578125,6.7285156-2.6376953,10.5761719-2.6376953c4.3632813,0,8.0322266,1.1123047,11.0078125,3.3369141    c2.9746094,2.2246094,5.0478516,5.3535156,6.2177734,9.3847656l-5.6875,1.3417969    c-1.0117188-3.1806641-2.4804688-5.4970703-4.4042969-6.9482422c-1.9248047-1.4511719-4.3447266-2.1777344-7.2607422-2.1777344    c-3.3535156,0-6.1552734,0.8056641-8.4072266,2.4160156c-2.2519531,1.6113281-3.8349609,3.7734375-4.7470703,6.4873047    s-1.3681641,5.5126953-1.3681641,8.3955078c0,3.71875,0.5410156,6.9638672,1.6240234,9.7373047    c1.0820313,2.7734375,2.765625,4.8466797,5.0498047,6.21875s4.7568359,2.0576172,7.4189453,2.0576172    c3.2373047,0,5.9785156-0.9345703,8.2236328-2.8037109C759.8916016,516.7602539,761.4111328,513.9868164,762.2060547,510.3081055z    "/>
		<path d="M833.0214844,525.6206055v-43.6875h15.0517578c3.3984375,0,5.9912109,0.2089844,7.7792969,0.6259766    c2.5039063,0.5761719,4.6396484,1.6191406,6.4091797,3.1289063c2.3046875,1.9472656,4.0283203,4.4365234,5.1708984,7.4658203    s1.7138672,6.4912109,1.7138672,10.3847656c0,3.3183594-0.3876953,6.2587891-1.1630859,8.8212891    s-1.7685547,4.6835938-2.9804688,6.3623047s-2.5380859,3-3.9785156,3.9628906    c-1.4414063,0.9638672-3.1796875,1.6943359-5.2167969,2.1904297c-2.0371094,0.4970703-4.3759766,0.7451172-7.0185547,0.7451172    H833.0214844z M838.7714844,520.4956055h9.3505859c2.8876953,0,5.1533203-0.2685547,6.796875-0.8056641    c1.6425781-0.5371094,2.9521484-1.2939453,3.9287109-2.2695313c1.3730469-1.3730469,2.4433594-3.21875,3.2109375-5.5371094    c0.7666016-2.3183594,1.1503906-5.1298828,1.1503906-8.4345703c0-4.578125-0.7519531-8.0957031-2.2558594-10.5537109    s-3.3310547-4.1054688-5.4814453-4.9414063c-1.5537109-0.5966797-4.0537109-0.8955078-7.4990234-0.8955078h-9.2011719V520.4956055    z"/>
		<path d="M935.1484375,525.6206055v-43.6875h31.625v5.125h-25.875v13.4375h24.25v5.125h-24.25v14.875h26.875v5.125H935.1484375z"/>
		<path d="M1033.9726563,525.6206055v-43.6875h29.375v5.125h-23.625v13.5625h20.4375v5.125h-20.4375v19.875H1033.9726563z"/>
		<path d="M1149.3085938,508.4956055v-5.125h18.5v16.1865234c-2.8388672,2.2617188-5.7666016,3.9619141-8.7841797,5.1025391    s-6.1132813,1.7109375-9.2890625,1.7109375c-4.2880859,0-8.1835938-0.9189453-11.6875-2.7568359    s-6.1484375-4.4960938-7.9345703-7.9736328c-1.7871094-3.4775391-2.6796875-7.3623047-2.6796875-11.6542969    c0-4.2519531,0.8876953-8.2216797,2.6640625-11.9082031c1.7763672-3.6855469,4.3320313-6.4228516,7.6669922-8.2119141    c3.3339844-1.7880859,7.1748047-2.6826172,11.5224609-2.6826172c3.1552734,0,6.0078125,0.5126953,8.5585938,1.5371094    s4.5498047,2.4511719,5.9990234,4.28125s2.5507813,4.2177734,3.3056641,7.1611328l-5.2373047,1.4296875    c-0.6552734-2.2285156-1.46875-3.9804688-2.4404297-5.2558594c-0.9726563-1.2753906-2.3613281-2.296875-4.1669922-3.0644531    s-3.8095703-1.1513672-6.0117188-1.1513672c-2.6386719,0-4.9208984,0.4042969-6.8457031,1.2109375    s-3.4775391,1.8681641-4.6582031,3.1835938s-2.0976563,2.7597656-2.7519531,4.3339844    c-1.1113281,2.7109375-1.6669922,5.6513672-1.6669922,8.8193359c0,3.90625,0.6689453,7.1738281,2.0087891,9.8046875    c1.3388672,2.6308594,3.2880859,4.5839844,5.8476563,5.859375s5.2783203,1.9130859,8.1552734,1.9130859    c2.5,0,4.9404297-0.484375,7.3212891-1.4550781c2.3808594-0.9697266,4.1865234-2.0048828,5.4169922-3.1044922v-8.1904297    H1149.3085938z"/>
		<path d="M1229.5615234,525.6206055l16.6777344-43.6875h6.3105469l17.7988281,43.6875h-6.5800781l-5.0458984-13.25h-18.3496094    l-4.7294922,13.25H1229.5615234z M1242.0644531,507.6831055h14.8535156l-4.5517578-12.0966797    c-1.3652344-3.6826172-2.4082031-6.7333984-3.1289063-9.1533203c-0.59375,2.859375-1.3925781,5.6699219-2.3945313,8.4335938    L1242.0644531,507.6831055z"/>
		<path d="M1332.6552734,525.6206055v-43.6875h16.3916016c3.3369141,0,6.0136719,0.4423828,8.03125,1.3261719    c2.0166016,0.8837891,3.5957031,2.2441406,4.7382813,4.0810547c1.1425781,1.8378906,1.7138672,3.7587891,1.7138672,5.7646484    c0,1.8671875-0.5068359,3.625-1.5195313,5.2734375s-2.5410156,2.9794922-4.5859375,3.9921875    c2.6435547,0.7753906,4.6757813,2.0966797,6.0976563,3.9648438s2.1328125,4.0742188,2.1328125,6.6171875    c0,2.046875-0.4326172,3.9501953-1.296875,5.7080078c-0.8652344,1.7587891-1.9335938,3.1152344-3.2050781,4.0683594    c-1.2714844,0.9541016-2.8662109,1.6748047-4.7841797,2.1611328c-1.9179688,0.4873047-4.2685547,0.7304688-7.0498047,0.7304688    H1332.6552734z M1338.4052734,500.3081055h9.4648438c2.5673828,0,4.4082031-0.1689453,5.5234375-0.5078125    c1.4726563-0.4384766,2.5830078-1.1660156,3.3291016-2.1835938c0.7460938-1.0166016,1.1201172-2.2929688,1.1201172-3.8291016    c0-1.4550781-0.3486328-2.7353516-1.0449219-3.8427734c-0.6972656-1.1064453-1.6923828-1.8642578-2.9863281-2.2734375    c-1.2939453-0.4082031-3.5136719-0.6132813-6.6582031-0.6132813h-8.7480469V500.3081055z M1338.4052734,520.4956055h10.9257813    c1.875,0,3.1923828-0.0693359,3.9511719-0.2089844c1.3369141-0.2382813,2.4541016-0.6367188,3.3525391-1.1953125    c0.8974609-0.5576172,1.6357422-1.3691406,2.2148438-2.4355469c0.578125-1.0664063,0.8681641-2.296875,0.8681641-3.6914063    c0-1.6328125-0.4277344-3.0527344-1.28125-4.2578125s-2.0224609-2.0527344-3.5048828-2.5410156    c-1.4833984-0.4882813-3.6181641-0.7324219-6.4042969-0.7324219h-10.1220703V520.4956055z"/>
		<path d="M62.8203125,510.3081055l5.75,1.4619141c-1.2109375,4.7480469-3.3876953,8.3681641-6.53125,10.8613281    c-3.1445313,2.4931641-6.9873047,3.7392578-11.5302734,3.7392578c-4.7011719,0-8.5253906-0.9580078-11.4707031-2.8759766    s-5.1875-4.6943359-6.7246094-8.3310547s-2.3056641-7.5410156-2.3056641-11.7148438    c0-4.5498047,0.8671875-8.5185547,2.6025391-11.9072266s4.2050781-5.9619141,7.4082031-7.7207031    c3.203125-1.7578125,6.7285156-2.6376953,10.5761719-2.6376953c4.3632813,0,8.0322266,1.1123047,11.0078125,3.3369141    c2.9746094,2.2246094,5.0478516,5.3535156,6.2177734,9.3847656l-5.6875,1.3417969    c-1.0117188-3.1806641-2.4804688-5.4970703-4.4042969-6.9482422c-1.9248047-1.4511719-4.3447266-2.1777344-7.2607422-2.1777344    c-3.3535156,0-6.1552734,0.8056641-8.4072266,2.4160156c-2.2519531,1.6113281-3.8349609,3.7734375-4.7470703,6.4873047    s-1.3681641,5.5126953-1.3681641,8.3955078c0,3.71875,0.5410156,6.9638672,1.6240234,9.7373047    c1.0820313,2.7734375,2.765625,4.8466797,5.0498047,6.21875s4.7568359,2.0576172,7.4189453,2.0576172    c3.2373047,0,5.9785156-0.9345703,8.2236328-2.8037109C60.5058594,516.7602539,62.0253906,513.9868164,62.8203125,510.3081055z"/>
		<path d="M133.6352539,525.6206055v-43.6875h15.0517578c3.3984375,0,5.9912109,0.2089844,7.7792969,0.6259766    c2.5039063,0.5761719,4.6396484,1.6191406,6.4091797,3.1289063c2.3046875,1.9472656,4.0283203,4.4365234,5.1708984,7.4658203    s1.7138672,6.4912109,1.7138672,10.3847656c0,3.3183594-0.3876953,6.2587891-1.1630859,8.8212891    s-1.7685547,4.6835938-2.9804688,6.3623047s-2.5380859,3-3.9785156,3.9628906    c-1.4414063,0.9638672-3.1796875,1.6943359-5.2167969,2.1904297c-2.0371094,0.4970703-4.3759766,0.7451172-7.0185547,0.7451172    H133.6352539z M139.3852539,520.4956055h9.3505859c2.8876953,0,5.1533203-0.2685547,6.796875-0.8056641    c1.6425781-0.5371094,2.9521484-1.2939453,3.9287109-2.2695313c1.3730469-1.3730469,2.4433594-3.21875,3.2109375-5.5371094    c0.7666016-2.3183594,1.1503906-5.1298828,1.1503906-8.4345703c0-4.578125-0.7519531-8.0957031-2.2558594-10.5537109    s-3.3310547-4.1054688-5.4814453-4.9414063c-1.5537109-0.5966797-4.0537109-0.8955078-7.4990234-0.8955078h-9.2011719V520.4956055    z"/>
		<path d="M235.762207,525.6206055v-43.6875h31.625v5.125h-25.875v13.4375h24.25v5.125h-24.25v14.875h26.875v5.125H235.762207z"/>
		<path d="M334.5864258,525.6206055v-43.6875h29.375v5.125h-23.625v13.5625h20.4375v5.125h-20.4375v19.875H334.5864258z"/>
		<path d="M449.9223633,508.4956055v-5.125h18.5v16.1865234c-2.8388672,2.2617188-5.7666016,3.9619141-8.7841797,5.1025391    s-6.1132813,1.7109375-9.2890625,1.7109375c-4.2880859,0-8.1835938-0.9189453-11.6875-2.7568359    s-6.1484375-4.4960938-7.9345703-7.9736328c-1.7871094-3.4775391-2.6796875-7.3623047-2.6796875-11.6542969    c0-4.2519531,0.8876953-8.2216797,2.6640625-11.9082031c1.7763672-3.6855469,4.3320313-6.4228516,7.6669922-8.2119141    c3.3339844-1.7880859,7.1748047-2.6826172,11.5224609-2.6826172c3.1552734,0,6.0078125,0.5126953,8.5585938,1.5371094    s4.5498047,2.4511719,5.9990234,4.28125s2.5507813,4.2177734,3.3056641,7.1611328l-5.2373047,1.4296875    c-0.6552734-2.2285156-1.46875-3.9804688-2.4404297-5.2558594c-0.9726563-1.2753906-2.3613281-2.296875-4.1669922-3.0644531    s-3.8095703-1.1513672-6.0117188-1.1513672c-2.6386719,0-4.9208984,0.4042969-6.8457031,1.2109375    s-3.4775391,1.8681641-4.6582031,3.1835938s-2.0976563,2.7597656-2.7519531,4.3339844    c-1.1113281,2.7109375-1.6669922,5.6513672-1.6669922,8.8193359c0,3.90625,0.6689453,7.1738281,2.0087891,9.8046875    c1.3388672,2.6308594,3.2880859,4.5839844,5.8476563,5.859375s5.2783203,1.9130859,8.1552734,1.9130859    c2.5,0,4.9404297-0.484375,7.3212891-1.4550781c2.3808594-0.9697266,4.1865234-2.0048828,5.4169922-3.1044922v-8.1904297    H449.9223633z"/>
		<path d="M530.1757813,525.6206055l16.6777344-43.6875h6.3105469l17.7988281,43.6875h-6.5800781l-5.0458984-13.25h-18.3496094    l-4.7294922,13.25H530.1757813z M542.6787109,507.6831055h14.8535156l-4.5517578-12.0966797    c-1.3652344-3.6826172-2.4082031-6.7333984-3.1289063-9.1533203c-0.59375,2.859375-1.3925781,5.6699219-2.3945313,8.4335938    L542.6787109,507.6831055z"/>
		<path d="M633.2695313,525.6206055v-43.6875h16.3916016c3.3369141,0,6.0136719,0.4423828,8.03125,1.3261719    c2.0166016,0.8837891,3.5957031,2.2441406,4.7382813,4.0810547c1.1425781,1.8378906,1.7138672,3.7587891,1.7138672,5.7646484    c0,1.8671875-0.5068359,3.625-1.5195313,5.2734375s-2.5410156,2.9794922-4.5859375,3.9921875    c2.6435547,0.7753906,4.6757813,2.0966797,6.0976563,3.9648438s2.1328125,4.0742188,2.1328125,6.6171875    c0,2.046875-0.4326172,3.9501953-1.296875,5.7080078c-0.8652344,1.7587891-1.9335938,3.1152344-3.2050781,4.0683594    c-1.2714844,0.9541016-2.8662109,1.6748047-4.7841797,2.1611328c-1.9179688,0.4873047-4.2685547,0.7304688-7.0498047,0.7304688    H633.2695313z M639.0195313,500.3081055h9.4648438c2.5673828,0,4.4082031-0.1689453,5.5234375-0.5078125    c1.4726563-0.4384766,2.5830078-1.1660156,3.3291016-2.1835938c0.7460938-1.0166016,1.1201172-2.2929688,1.1201172-3.8291016    c0-1.4550781-0.3486328-2.7353516-1.0449219-3.8427734c-0.6972656-1.1064453-1.6923828-1.8642578-2.9863281-2.2734375    c-1.2939453-0.4082031-3.5136719-0.6132813-6.6582031-0.6132813h-8.7480469V500.3081055z M639.0195313,520.4956055h10.9257813    c1.875,0,3.1923828-0.0693359,3.9511719-0.2089844c1.3369141-0.2382813,2.4541016-0.6367188,3.3525391-1.1953125    c0.8974609-0.5576172,1.6357422-1.3691406,2.2148438-2.4355469c0.578125-1.0664063,0.8681641-2.296875,0.8681641-3.6914063    c0-1.6328125-0.4277344-3.0527344-1.28125-4.2578125s-2.0224609-2.0527344-3.5048828-2.5410156    c-1.4833984-0.4882813-3.6181641-0.7324219-6.4042969-0.7324219h-10.1220703V520.4956055z"/>
		<path d="M1461.5917969,510.3081055l5.75,1.4619141c-1.2109375,4.7480469-3.3876953,8.3681641-6.53125,10.8613281    c-3.1445313,2.4931641-6.9873047,3.7392578-11.5302734,3.7392578c-4.7011719,0-8.5253906-0.9580078-11.4707031-2.8759766    s-5.1875-4.6943359-6.7246094-8.3310547s-2.3056641-7.5410156-2.3056641-11.7148438    c0-4.5498047,0.8671875-8.5185547,2.6025391-11.9072266s4.2050781-5.9619141,7.4082031-7.7207031    c3.203125-1.7578125,6.7285156-2.6376953,10.5761719-2.6376953c4.3632813,0,8.0322266,1.1123047,11.0078125,3.3369141    c2.9746094,2.2246094,5.0478516,5.3535156,6.2177734,9.3847656l-5.6875,1.3417969    c-1.0117188-3.1806641-2.4804688-5.4970703-4.4042969-6.9482422c-1.9248047-1.4511719-4.3447266-2.1777344-7.2607422-2.1777344    c-3.3535156,0-6.1552734,0.8056641-8.4072266,2.4160156c-2.2519531,1.6113281-3.8349609,3.7734375-4.7470703,6.4873047    s-1.3681641,5.5126953-1.3681641,8.3955078c0,3.71875,0.5410156,6.9638672,1.6240234,9.7373047    c1.0820313,2.7734375,2.765625,4.8466797,5.0498047,6.21875s4.7568359,2.0576172,7.4189453,2.0576172    c3.2373047,0,5.9785156-0.9345703,8.2236328-2.8037109    C1459.2773438,516.7602539,1460.796875,513.9868164,1461.5917969,510.3081055z"/>
		<path d="M1532.40625,525.6206055v-43.6875h15.0527344c3.3984375,0,5.9902344,0.2089844,7.7792969,0.6259766    c2.5039063,0.5761719,4.6386719,1.6191406,6.4082031,3.1289063c2.3046875,1.9472656,4.0292969,4.4365234,5.171875,7.4658203    s1.7128906,6.4912109,1.7128906,10.3847656c0,3.3183594-0.3867188,6.2587891-1.1621094,8.8212891    s-1.7695313,4.6835938-2.9804688,6.3623047c-1.2128906,1.6787109-2.5390625,3-3.9785156,3.9628906    c-1.4414063,0.9638672-3.1796875,1.6943359-5.2167969,2.1904297c-2.0371094,0.4970703-4.3769531,0.7451172-7.0195313,0.7451172    H1532.40625z M1538.15625,520.4956055h9.3515625c2.8867188,0,5.1523438-0.2685547,6.796875-0.8056641    c1.6425781-0.5371094,2.9511719-1.2939453,3.9277344-2.2695313c1.3730469-1.3730469,2.4433594-3.21875,3.2109375-5.5371094    s1.1503906-5.1298828,1.1503906-8.4345703c0-4.578125-0.7519531-8.0957031-2.2558594-10.5537109    s-3.3300781-4.1054688-5.4804688-4.9414063c-1.5546875-0.5966797-4.0546875-0.8955078-7.5-0.8955078h-9.2011719V520.4956055z"/>
		<path d="M1634.5332031,525.6206055v-43.6875h31.625v5.125h-25.875v13.4375h24.25v5.125h-24.25v14.875h26.875v5.125H1634.5332031z"/>
		<path d="M1733.3574219,525.6206055v-43.6875h29.375v5.125h-23.625v13.5625h20.4375v5.125h-20.4375v19.875H1733.3574219z"/>
		<path d="M1848.6933594,508.4956055v-5.125h18.5v16.1865234c-2.8378906,2.2617188-5.765625,3.9619141-8.7832031,5.1025391    s-6.1132813,1.7109375-9.2890625,1.7109375c-4.2890625,0-8.1835938-0.9189453-11.6875-2.7568359    s-6.1484375-4.4960938-7.9355469-7.9736328s-2.6796875-7.3623047-2.6796875-11.6542969    c0-4.2519531,0.8886719-8.2216797,2.6640625-11.9082031c1.7773438-3.6855469,4.3320313-6.4228516,7.6679688-8.2119141    c3.3339844-1.7880859,7.1738281-2.6826172,11.5214844-2.6826172c3.15625,0,6.0078125,0.5126953,8.5585938,1.5371094    s4.5507813,2.4511719,6,4.28125s2.5507813,4.2177734,3.3046875,7.1611328l-5.2363281,1.4296875    c-0.65625-2.2285156-1.46875-3.9804688-2.4414063-5.2558594s-2.3613281-2.296875-4.1660156-3.0644531    c-1.8066406-0.7675781-3.8105469-1.1513672-6.0117188-1.1513672c-2.6386719,0-4.921875,0.4042969-6.8457031,1.2109375    c-1.9257813,0.8066406-3.4785156,1.8681641-4.6582031,3.1835938c-1.1816406,1.3154297-2.0976563,2.7597656-2.7519531,4.3339844    c-1.1113281,2.7109375-1.6679688,5.6513672-1.6679688,8.8193359c0,3.90625,0.6699219,7.1738281,2.0097656,9.8046875    c1.3378906,2.6308594,3.2871094,4.5839844,5.8476563,5.859375c2.5585938,1.2753906,5.2773438,1.9130859,8.1542969,1.9130859    c2.5,0,4.9414063-0.484375,7.3222656-1.4550781c2.3808594-0.9697266,4.1855469-2.0048828,5.4160156-3.1044922v-8.1904297    H1848.6933594z"/>
		<path d="M1928.9472656,525.6206055l16.6777344-43.6875h6.3105469l17.7988281,43.6875h-6.5800781l-5.0458984-13.25h-18.3496094    l-4.7294922,13.25H1928.9472656z M1941.4501953,507.6831055h14.8535156l-4.5517578-12.0966797    c-1.3652344-3.6826172-2.4082031-6.7333984-3.1289063-9.1533203c-0.59375,2.859375-1.3925781,5.6699219-2.3945313,8.4335938    L1941.4501953,507.6831055z"/>
		<path d="M2032.0410156,525.6206055v-43.6875h16.3916016c3.3369141,0,6.0136719,0.4423828,8.03125,1.3261719    c2.0166016,0.8837891,3.5957031,2.2441406,4.7382813,4.0810547c1.1425781,1.8378906,1.7138672,3.7587891,1.7138672,5.7646484    c0,1.8671875-0.5068359,3.625-1.5195313,5.2734375s-2.5410156,2.9794922-4.5859375,3.9921875    c2.6435547,0.7753906,4.6757813,2.0966797,6.0976563,3.9648438s2.1328125,4.0742188,2.1328125,6.6171875    c0,2.046875-0.4326172,3.9501953-1.296875,5.7080078c-0.8652344,1.7587891-1.9335938,3.1152344-3.2050781,4.0683594    c-1.2714844,0.9541016-2.8662109,1.6748047-4.7841797,2.1611328c-1.9179688,0.4873047-4.2685547,0.7304688-7.0498047,0.7304688    H2032.0410156z M2037.7910156,500.3081055h9.4648438c2.5673828,0,4.4082031-0.1689453,5.5234375-0.5078125    c1.4726563-0.4384766,2.5830078-1.1660156,3.3291016-2.1835938c0.7460938-1.0166016,1.1201172-2.2929688,1.1201172-3.8291016    c0-1.4550781-0.3486328-2.7353516-1.0449219-3.8427734c-0.6972656-1.1064453-1.6923828-1.8642578-2.9863281-2.2734375    c-1.2939453-0.4082031-3.5136719-0.6132813-6.6582031-0.6132813h-8.7480469V500.3081055z M2037.7910156,520.4956055h10.9257813    c1.875,0,3.1923828-0.0693359,3.9511719-0.2089844c1.3369141-0.2382813,2.4541016-0.6367188,3.3525391-1.1953125    c0.8974609-0.5576172,1.6357422-1.3691406,2.2148438-2.4355469c0.578125-1.0664063,0.8681641-2.296875,0.8681641-3.6914063    c0-1.6328125-0.4277344-3.0527344-1.28125-4.2578125s-2.0224609-2.0527344-3.5048828-2.5410156    c-1.4833984-0.4882813-3.6181641-0.7324219-6.4042969-0.7324219h-10.1220703V520.4956055z"/>
	</g>
<head xmlns=""/></svg>